<svg xmlns="http://www.w3.org/2000/svg" version="1.1" xmlns:xlink="http://www.w3.org/1999/xlink" xmlns:svgjs="http://svgjs.com/svgjs" width="100" height="100" x="0" y="0" viewBox="0 0 64 64" style="enable-background:new 0 0 512 512" xml:space="preserve" class=""><g><g xmlns="http://www.w3.org/2000/svg" id="Icons"><g><path d="m12 24h40v8h-40z" fill="#64C8F0" data-original="#64c8f0"></path></g><g><path d="m12 14h40v8h-40z" fill="#64C8F0" data-original="#64c8f0"></path></g><g><path d="m12 4h40v8h-40z" fill="#64C8F0" data-original="#64c8f0"></path></g><g><path d="m12 24h4v8h-4z" fill="#46AAD2" data-original="#46aad2"></path></g><g><path d="m12 14h4v8h-4z" fill="#46AAD2" data-original="#46aad2"></path></g><g><path d="m12 4h4v8h-4z" fill="#46AAD2" data-original="#46aad2"></path></g><g><path d="m20 26h4v4h-4z" fill="#FA6450" data-original="#fa6450"></path></g><g><path d="m28 26h16v4h-16z" fill="#FAB400" data-original="#fab400"></path></g><g><path d="m20 16h4v4h-4z" fill="#FA6450" data-original="#fa6450"></path></g><g><path d="m28 16h16v4h-16z" fill="#FAB400" data-original="#fab400"></path></g><g><path d="m20 6h4v4h-4z" fill="#FA6450" data-original="#fa6450"></path></g><g><path d="m28 6h16v4h-16z" fill="#FAB400" data-original="#fab400"></path></g><g><path d="m18 50h-6v10h8v-8z" fill="#FA6450" data-original="#fa6450"></path></g><g><path d="m12 50h2v10h-2z" fill="#DC4632" data-original="#dc4632"></path></g><g><path d="m48.5 48h-1v-7.5h-31v7.5h-1v-8.5h33z" fill="#505050" data-original="#505050"></path></g><g><path d="m31.5 34h1v14h-1z" fill="#505050" data-original="#505050"></path></g><g><path d="m18 50v2h2z" fill="#DC4632" data-original="#dc4632"></path></g><g><path d="m34 50h-6v10h8v-8z" fill="#3CC8B4" data-original="#3cc8b4"></path></g><g><path d="m28 50h2v10h-2z" fill="#1EAA96" data-original="#1eaa96"></path></g><g><path d="m34 50v2h2z" fill="#1EAA96" data-original="#1eaa96"></path></g><g><path d="m50 50h-6v10h8v-8z" fill="#64C8F0" data-original="#64c8f0"></path></g><g><path d="m44 50h2v10h-2z" fill="#46AAD2" data-original="#46aad2"></path></g><g><path d="m50 50v2h2z" fill="#46AAD2" data-original="#46aad2"></path></g><g><path d="m46 53.5h4v1h-4z" fill="#F0F0F0" data-original="#f0f0f0"></path></g><g><path d="m46 55.5h4v1h-4z" fill="#F0F0F0" data-original="#f0f0f0"></path></g><g><path d="m30 53.5h4v1h-4z" fill="#F0F0F0" data-original="#f0f0f0"></path></g><g><path d="m30 55.5h4v1h-4z" fill="#F0F0F0" data-original="#f0f0f0"></path></g><g><path d="m14 53.5h4v1h-4z" fill="#F0F0F0" data-original="#f0f0f0"></path></g><g><path d="m14 55.5h4v1h-4z" fill="#F0F0F0" data-original="#f0f0f0"></path></g></g></g></svg>