<svg xmlns="http://www.w3.org/2000/svg" version="1.1" xmlns:xlink="http://www.w3.org/1999/xlink" xmlns:svgjs="http://svgjs.com/svgjs" width="512" height="512" x="0" y="0" viewBox="0 0 512.001 512.001" style="enable-background:new 0 0 512 512" xml:space="preserve"><g>
<path xmlns="http://www.w3.org/2000/svg" style="" d="M396,67.99v376.02c0,32.027-86.409,57.99-193,57.99S10,476.037,10,444.01V67.99H396z" fill="#41C0F0" data-original="#41c0f0"></path>
<g xmlns="http://www.w3.org/2000/svg">
	<path style="" d="M203,252.679c-106.591,0-193-25.963-193-57.99v124.63c0,32.027,86.409,57.99,193,57.99   s193-25.963,193-57.99V194.69C396,226.716,309.591,252.679,203,252.679z" fill="#D0E6EF" data-original="#d0e6ef"></path>
	<ellipse style="" cx="203" cy="67.99" rx="193" ry="57.99" fill="#D0E6EF" data-original="#d0e6ef"></ellipse>
</g>
<polygon xmlns="http://www.w3.org/2000/svg" style="" points="329.296,305.987 346.432,316.288 372.688,305.408 377.522,285.999 410.478,285.999   415.313,305.408 441.568,316.288 458.704,305.987 482.012,329.295 471.711,346.431 482.591,372.686 502,377.522 502,410.477   482.591,415.312 471.711,441.567 482.012,458.704 458.704,482.011 441.568,471.71 415.313,482.591 410.478,501.999 377.522,501.999   372.688,482.591 346.432,471.71 329.296,482.011 305.988,458.704 316.289,441.567 305.409,415.312 286,410.477 286,377.522   305.409,372.686 316.289,346.431 305.988,329.295 " fill="#F25353" data-original="#f25353"></polygon>
<circle xmlns="http://www.w3.org/2000/svg" style="" cx="394" cy="394" r="52" fill="#FFFFFF" data-original="#ffffff"></circle>
<path xmlns="http://www.w3.org/2000/svg" d="M334,77.99c5.522,0,10-4.477,10-10v-0.061c0-5.523-4.478-9.97-10-9.97s-10,4.507-10,10.03S328.478,77.99,334,77.99z" fill="#000000" data-original="#000000"></path>
<path xmlns="http://www.w3.org/2000/svg" d="M203,55c33.528,0,65.209,2.234,89.206,6.291c0.564,0.096,1.125,0.142,1.679,0.142c4.79,0,9.023-3.454,9.849-8.334  c0.92-5.446-2.748-10.606-8.193-11.527C270.477,37.333,237.611,35,203,35c-5.522,0-10,4.477-10,10S197.478,55,203,55z" fill="#000000" data-original="#000000"></path>
<path xmlns="http://www.w3.org/2000/svg" d="M446,383.999c-5.522,0-10,4.477-10,10c0,11.219-4.369,21.766-12.302,29.698c-16.375,16.376-43.021,16.376-59.396,0  C356.368,415.765,352,405.218,352,393.999s4.368-21.766,12.302-29.699c8.545-8.545,20.372-13.001,32.442-12.212  c5.485,0.35,10.27-3.819,10.627-9.33c0.358-5.511-3.818-10.27-9.33-10.628c-17.804-1.161-35.268,5.412-47.882,18.028  c-11.71,11.71-18.159,27.28-18.159,43.841s6.449,32.13,18.159,43.841c12.087,12.087,27.964,18.13,43.841,18.13  s31.754-6.043,43.841-18.13c11.71-11.71,18.159-27.28,18.159-43.841C456,388.476,451.522,383.999,446,383.999z" fill="#000000" data-original="#000000"></path>
<path xmlns="http://www.w3.org/2000/svg" d="M423.669,364.271c1.955,1.972,4.527,2.958,7.101,2.958c2.546,0,5.092-0.966,7.042-2.899  c3.921-3.889,3.947-10.221,0.059-14.142l-0.159-0.159l-7.118,7.024l7.071-7.071c-3.906-3.905-10.236-3.905-14.143,0  c-3.905,3.905-3.905,10.237,0,14.143C423.529,364.132,423.661,364.263,423.669,364.271z" fill="#000000" data-original="#000000"></path>
<path xmlns="http://www.w3.org/2000/svg" d="M504.417,367.818l-14.517-3.616l-7.021-16.94l7.702-12.814c2.366-3.936,1.748-8.976-1.499-12.223l-23.308-23.308  c-3.248-3.247-8.288-3.866-12.224-1.499l-12.813,7.703l-16.94-7.021l-3.617-14.518c-1.109-4.456-5.111-7.583-9.703-7.583H406V67.99  c0-20.58-22.01-38.07-63.65-50.582C304.988,6.182,255.5,0,203,0S101.012,6.182,63.65,17.408C22.01,29.919,0,47.41,0,67.99v376.02  c0,20.58,22.01,38.07,63.65,50.582C101.012,505.818,150.5,512,203,512c22.181,0,43.956-1.105,64.722-3.285  c5.493-0.577,9.478-5.497,8.901-10.989c-0.576-5.494-5.511-9.479-10.989-8.901C245.559,490.932,224.485,492,203,492  c-50.604,0-98.049-5.882-133.594-16.562C32.939,464.481,20,451.66,20,444.01v-94.214c10.541,7.357,25.154,13.899,43.65,19.456  C101.012,380.478,150.5,386.66,203,386.66c15.327,0,30.597-0.534,45.384-1.587c5.509-0.392,9.657-5.176,9.265-10.685  s-5.203-9.661-10.685-9.264c-14.316,1.019-29.108,1.536-43.964,1.536c-50.604,0-98.049-5.882-133.594-16.562  C32.939,339.141,20,326.32,20,318.67v-94.215c10.542,7.357,25.155,13.899,43.651,19.456c37.36,11.226,86.849,17.408,139.349,17.408  s101.988-6.182,139.349-17.408c18.497-5.558,33.11-12.1,43.651-19.456v51.544h-8.478c-4.592,0-8.594,3.127-9.703,7.583  l-3.617,14.518l-16.94,7.021l-12.813-7.703c-3.935-2.367-8.977-1.748-12.224,1.499l-23.308,23.308  c-3.247,3.247-3.865,8.288-1.499,12.223l7.702,12.814l-7.021,16.94l-14.517,3.616c-4.456,1.11-7.583,5.112-7.583,9.704v32.955  c0,4.592,3.127,8.593,7.582,9.703l14.518,3.617l7.021,16.94l-7.703,12.815c-2.365,3.936-1.746,8.976,1.5,12.223l23.308,23.307  c3.248,3.247,8.289,3.864,12.224,1.5l12.813-7.703l16.94,7.021l3.617,14.518c1.109,4.456,5.111,7.583,9.703,7.583h32.955  c4.592,0,8.594-3.127,9.703-7.583l3.617-14.518l16.94-7.021l12.813,7.703c3.935,2.365,8.977,1.748,12.224-1.5l23.308-23.307  c3.246-3.247,3.865-8.288,1.5-12.223l-7.703-12.815l7.021-16.94l14.518-3.617c4.455-1.11,7.582-5.111,7.582-9.703v-32.955  C512,372.93,508.873,368.928,504.417,367.818z M69.406,36.562C104.951,25.882,152.396,20,203,20s98.049,5.882,133.594,16.562  C373.061,47.519,386,60.34,386,67.99s-12.939,20.471-49.406,31.427c-35.545,10.68-82.989,16.562-133.594,16.562  s-98.049-5.882-133.594-16.562C32.939,88.46,20,75.64,20,67.99S32.939,47.519,69.406,36.562z M336.594,224.757  c-35.545,10.68-82.989,16.562-133.594,16.562s-98.049-5.882-133.594-16.562C32.939,213.801,20,200.98,20,193.33V99.115  c10.542,7.357,25.155,13.899,43.651,19.456c37.36,11.226,86.849,17.408,139.349,17.408s101.988-6.182,139.349-17.408  c18.497-5.558,33.11-12.1,43.651-19.456v94.215C386,200.98,373.061,213.801,336.594,224.757z M492,402.662l-11.826,2.947  c-3.076,0.766-5.606,2.946-6.82,5.875l-10.881,26.255c-1.214,2.93-0.967,6.262,0.668,8.98l6.274,10.439l-12.256,12.256  l-10.438-6.275c-2.717-1.633-6.051-1.881-8.98-0.667l-26.256,10.88c-2.929,1.214-5.109,3.745-5.875,6.821l-2.946,11.826h-17.326  l-2.946-11.826c-0.766-3.076-2.946-5.607-5.875-6.821l-26.256-10.88c-2.933-1.215-6.264-0.966-8.98,0.667l-10.438,6.275  l-12.256-12.256l6.274-10.439c1.635-2.718,1.882-6.05,0.668-8.98l-10.881-26.255c-1.214-2.929-3.744-5.108-6.82-5.875L296,402.662  v-17.326l11.825-2.946c3.076-0.767,5.607-2.946,6.821-5.875l10.881-26.255c1.214-2.93,0.967-6.262-0.668-8.98l-6.274-10.439  l12.256-12.256l10.438,6.275c2.717,1.634,6.05,1.884,8.98,0.668l26.256-10.881c2.929-1.214,5.109-3.745,5.875-6.821L385.337,296  h17.326l2.946,11.826c0.766,3.076,2.946,5.607,5.875,6.821l26.256,10.881c2.929,1.214,6.263,0.965,8.98-0.668l10.438-6.275  l12.256,12.256l-6.274,10.439c-1.635,2.718-1.882,6.05-0.668,8.98l10.881,26.255c1.214,2.929,3.745,5.108,6.821,5.875L492,385.336  V402.662z" fill="#000000" data-original="#000000"></path>
<g xmlns="http://www.w3.org/2000/svg">
</g>
<g xmlns="http://www.w3.org/2000/svg">
</g>
<g xmlns="http://www.w3.org/2000/svg">
</g>
<g xmlns="http://www.w3.org/2000/svg">
</g>
<g xmlns="http://www.w3.org/2000/svg">
</g>
<g xmlns="http://www.w3.org/2000/svg">
</g>
<g xmlns="http://www.w3.org/2000/svg">
</g>
<g xmlns="http://www.w3.org/2000/svg">
</g>
<g xmlns="http://www.w3.org/2000/svg">
</g>
<g xmlns="http://www.w3.org/2000/svg">
</g>
<g xmlns="http://www.w3.org/2000/svg">
</g>
<g xmlns="http://www.w3.org/2000/svg">
</g>
<g xmlns="http://www.w3.org/2000/svg">
</g>
<g xmlns="http://www.w3.org/2000/svg">
</g>
<g xmlns="http://www.w3.org/2000/svg">
</g>
</g></svg>