<svg xmlns="http://www.w3.org/2000/svg" version="1.1" xmlns:xlink="http://www.w3.org/1999/xlink" xmlns:svgjs="http://svgjs.com/svgjs" width="100" height="100" x="0" y="0" viewBox="0 0 64 64" style="enable-background:new 0 0 512 512" xml:space="preserve"><g><path xmlns="http://www.w3.org/2000/svg" d="m40 55h12v8h-12z" fill="#FFDA44" data-original="#ffda44"></path><path xmlns="http://www.w3.org/2000/svg" d="m42 1h-26a4.012 4.012 0 0 0 -4 4v48a4.012 4.012 0 0 0 4 4h24v-2h1.5l.5-.666v-1.334a4 4 0 0 1 4-4v-44a4.012 4.012 0 0 0 -4-4zm-12 53a2 2 0 1 1 2-2 2 2 0 0 1 -2 2zm13-7h-28v-38h28z" fill="#3D9AE2" data-original="#3d9ae2"></path><circle xmlns="http://www.w3.org/2000/svg" cx="30" cy="52" fill="#FFDA44" r="2" data-original="#ffda44"></circle><path xmlns="http://www.w3.org/2000/svg" d="m15 9v38h28v-38zm12 5h4v4h-4zm0 8h4v4h-4zm0 8h4v4h-4zm-8-16h4v4h-4zm0 8h4v4h-4zm0 8h4v4h-4zm20 12h-20v-4h20zm0-8h-4v-4h4zm0-8h-4v-4h4zm0-8h-4v-4h4z" fill="#FFDA44" data-original="#ffda44"></path><path xmlns="http://www.w3.org/2000/svg" d="m19 14h4v4h-4z" fill="#3D9AE2" data-original="#3d9ae2"></path><path xmlns="http://www.w3.org/2000/svg" d="m27 14h4v4h-4z" fill="#3D9AE2" data-original="#3d9ae2"></path><path xmlns="http://www.w3.org/2000/svg" d="m35 14h4v4h-4z" fill="#3D9AE2" data-original="#3d9ae2"></path><path xmlns="http://www.w3.org/2000/svg" d="m19 22h4v4h-4z" fill="#3D9AE2" data-original="#3d9ae2"></path><path xmlns="http://www.w3.org/2000/svg" d="m27 22h4v4h-4z" fill="#3D9AE2" data-original="#3d9ae2"></path><path xmlns="http://www.w3.org/2000/svg" d="m35 22h4v4h-4z" fill="#3D9AE2" data-original="#3d9ae2"></path><path xmlns="http://www.w3.org/2000/svg" d="m19 30h4v4h-4z" fill="#3D9AE2" data-original="#3d9ae2"></path><path xmlns="http://www.w3.org/2000/svg" d="m27 30h4v4h-4z" fill="#3D9AE2" data-original="#3d9ae2"></path><path xmlns="http://www.w3.org/2000/svg" d="m35 30h4v4h-4z" fill="#3D9AE2" data-original="#3d9ae2"></path><path xmlns="http://www.w3.org/2000/svg" d="m19 38h20v4h-20z" fill="#3D9AE2" data-original="#3d9ae2"></path><g xmlns="http://www.w3.org/2000/svg" fill="#005ECE"><path d="m52 54h-1v-1a5.007 5.007 0 0 0 -4-4.9v-43.1a5.006 5.006 0 0 0 -5-5h-26a5.006 5.006 0 0 0 -5 5v48a5.006 5.006 0 0 0 5 5h23v5a1 1 0 0 0 1 1h12a1 1 0 0 0 1-1v-8a1 1 0 0 0 -1-1zm-3-1v1h-6v-1a3 3 0 0 1 6 0zm-33 3a3 3 0 0 1 -3-3v-48a3 3 0 0 1 3-3h26a3 3 0 0 1 3 3v43.1c-.018 0-.034.011-.053.015a5.085 5.085 0 0 0 -.832.259c-.1.039-.184.093-.277.138a4.754 4.754 0 0 0 -.53.288c-.1.063-.191.137-.286.208a5.139 5.139 0 0 0 -.428.353c-.089.083-.172.171-.255.261a5.244 5.244 0 0 0 -.349.422c-.072.1-.142.2-.208.3a4.907 4.907 0 0 0 -.268.5c-.052.1-.106.209-.15.319a4.947 4.947 0 0 0 -.185.6c-.026.1-.061.193-.08.295a4.96 4.96 0 0 0 -.099.942v1h-1a1 1 0 0 0 -1 1v1zm25 6v-2h1a1 1 0 0 0 0-2h-1v-2h10v2h-1a1 1 0 0 0 0 2h1v2z" fill="#005ECE" data-original="#005ece"></path><path d="m30 49a3 3 0 1 0 3 3 3 3 0 0 0 -3-3zm0 4a1 1 0 1 1 1-1 1 1 0 0 1 -1 1z" fill="#005ECE" data-original="#005ece"></path><path d="m23 51h-2a1 1 0 0 0 0 2h2a1 1 0 0 0 0-2z" fill="#005ECE" data-original="#005ece"></path><path d="m40 52a1 1 0 0 0 -1-1h-2a1 1 0 0 0 0 2h2a1 1 0 0 0 1-1z" fill="#005ECE" data-original="#005ece"></path><path d="m25 6h5a1 1 0 0 0 0-2h-5a1 1 0 0 0 0 2z" fill="#005ECE" data-original="#005ece"></path><path d="m33 6a.99.99 0 0 0 1-1 1 1 0 0 0 -1.71-.71.986.986 0 0 0 -.29.71.99.99 0 0 0 1 1z" fill="#005ECE" data-original="#005ece"></path><path d="m36 60h-7a1 1 0 0 0 0 2h7a1 1 0 0 0 0-2z" fill="#005ECE" data-original="#005ece"></path><path d="m24.29 60.29a1.045 1.045 0 0 0 -.29.71 1 1 0 0 0 .29.7 1.015 1.015 0 0 0 .71.3 1 1 0 1 0 -.71-1.71z" fill="#005ECE" data-original="#005ece"></path><path d="m20.29 60.29a1.045 1.045 0 0 0 -.29.71 1.007 1.007 0 0 0 1 1 1.036 1.036 0 0 0 .71-.29 1 1 0 0 0 -1.42-1.42z" fill="#005ECE" data-original="#005ece"></path><path d="m49 45a1 1 0 0 0 2 0v-8a1 1 0 0 0 -2 0z" fill="#005ECE" data-original="#005ece"></path><path d="m49.29 33.71a1.014 1.014 0 0 0 1.42 0 1.033 1.033 0 0 0 .29-.71 1 1 0 1 0 -2 0 1.028 1.028 0 0 0 .29.71z" fill="#005ECE" data-original="#005ece"></path><path d="m50 30a1.053 1.053 0 0 0 .71-.29 1.014 1.014 0 0 0 0-1.42 1.058 1.058 0 0 0 -1.42 0 1.014 1.014 0 0 0 0 1.42 1.05 1.05 0 0 0 .71.29z" fill="#005ECE" data-original="#005ece"></path><path d="m44 47v-38a1 1 0 0 0 -1-1h-28a1 1 0 0 0 -1 1v38a1 1 0 0 0 1 1h28a1 1 0 0 0 1-1zm-2-1h-26v-36h26z" fill="#005ECE" data-original="#005ece"></path><path d="m19 19h4a1 1 0 0 0 1-1v-4a1 1 0 0 0 -1-1h-4a1 1 0 0 0 -1 1v4a1 1 0 0 0 1 1zm1-4h2v2h-2z" fill="#005ECE" data-original="#005ece"></path><path d="m27 19h4a1 1 0 0 0 1-1v-4a1 1 0 0 0 -1-1h-4a1 1 0 0 0 -1 1v4a1 1 0 0 0 1 1zm1-4h2v2h-2z" fill="#005ECE" data-original="#005ece"></path><path d="m35 19h4a1 1 0 0 0 1-1v-4a1 1 0 0 0 -1-1h-4a1 1 0 0 0 -1 1v4a1 1 0 0 0 1 1zm1-4h2v2h-2z" fill="#005ECE" data-original="#005ece"></path><path d="m19 27h4a1 1 0 0 0 1-1v-4a1 1 0 0 0 -1-1h-4a1 1 0 0 0 -1 1v4a1 1 0 0 0 1 1zm1-4h2v2h-2z" fill="#005ECE" data-original="#005ece"></path><path d="m27 27h4a1 1 0 0 0 1-1v-4a1 1 0 0 0 -1-1h-4a1 1 0 0 0 -1 1v4a1 1 0 0 0 1 1zm1-4h2v2h-2z" fill="#005ECE" data-original="#005ece"></path><path d="m35 27h4a1 1 0 0 0 1-1v-4a1 1 0 0 0 -1-1h-4a1 1 0 0 0 -1 1v4a1 1 0 0 0 1 1zm1-4h2v2h-2z" fill="#005ECE" data-original="#005ece"></path><path d="m19 35h4a1 1 0 0 0 1-1v-4a1 1 0 0 0 -1-1h-4a1 1 0 0 0 -1 1v4a1 1 0 0 0 1 1zm1-4h2v2h-2z" fill="#005ECE" data-original="#005ece"></path><path d="m27 35h4a1 1 0 0 0 1-1v-4a1 1 0 0 0 -1-1h-4a1 1 0 0 0 -1 1v4a1 1 0 0 0 1 1zm1-4h2v2h-2z" fill="#005ECE" data-original="#005ece"></path><path d="m35 35h4a1 1 0 0 0 1-1v-4a1 1 0 0 0 -1-1h-4a1 1 0 0 0 -1 1v4a1 1 0 0 0 1 1zm1-4h2v2h-2z" fill="#005ECE" data-original="#005ece"></path><path d="m19 43h20a1 1 0 0 0 1-1v-4a1 1 0 0 0 -1-1h-20a1 1 0 0 0 -1 1v4a1 1 0 0 0 1 1zm1-4h18v2h-18z" fill="#005ECE" data-original="#005ece"></path></g></g></svg>