<svg xmlns="http://www.w3.org/2000/svg" version="1.1" xmlns:xlink="http://www.w3.org/1999/xlink" xmlns:svgjs="http://svgjs.com/svgjs" width="100" height="100" x="0" y="0" viewBox="0 0 256 256" style="enable-background:new 0 0 512 512" xml:space="preserve"><g><g xmlns="http://www.w3.org/2000/svg"><path d="m249.056 144.296-.323 41.292c0 2.681-1.067 5.244-2.967 7.145l-46.861 46.87c-1.681 1.681-2.625 3.961-2.625 6.339v4.284h-45.165v-27.952h.018c-.323-9.512 3.299-18.772 10.068-25.541 21.459-21.438 16.396-16.378 24.671-24.653 3.308-3.308 8.723-3.29 12.004.135 3.22 3.362 2.93 8.662-.26 11.852l-11.672 11.663c-3.631 3.649-3.604 9.574.117 13.169 3.586 3.478 9.628 3.21 13.161-.323l28.759-28.768c1.488-1.488 2.322-3.487 2.322-5.585l.323-29.925c0-5.101 4.133-9.225 9.225-9.225 5.081-.002 9.205 4.122 9.205 9.223z" fill="#FFB69F" data-original="#ffb69f"></path><path d="m107.886 250.225h-45.165v-4.284c0-2.377-.944-4.657-2.625-6.339l-46.861-46.87c-1.901-1.901-2.967-4.464-2.967-7.145l-.323-41.292c0-5.101 4.124-9.225 9.207-9.225 5.092 0 9.225 4.124 9.225 9.225l.323 29.925c0 2.098.834 4.097 2.322 5.585l28.759 28.768c3.532 3.532 9.575 3.801 13.161.323 3.72-3.595 3.747-9.521.117-13.169l-11.672-11.663c-3.194-3.194-3.475-8.494-.26-11.852 3.281-3.425 8.696-3.443 12.004-.135 8.274 8.274 3.211 3.215 24.671 24.653 6.506 6.506 10.104 15.314 10.087 24.435z" fill="#FFB69F" data-original="#ffb69f"></path><path d="m186.571 240.71c-.977-.977-.977-2.559 0-3.535l2.121-2.121c.976-.977 2.56-.977 3.535 0 .977.977.977 2.559 0 3.535l-2.121 2.121c-.975.977-2.559.977-3.535 0zm9.193-9.192c-.977-.977-.977-2.559 0-3.535l42.532-42.533.324-41.176c.011-1.374 1.128-2.48 2.5-2.48h.02c1.381.011 2.491 1.139 2.48 2.52l-.325 41.23c0 1.267-.49 2.466-1.379 3.357l-42.617 42.617c-.976.976-2.56.976-3.535 0z" fill="#FBE0E2" data-original="#fbe0e2"></path><path d="m99.951 246.542c-1.38 0-2.499-1.118-2.5-2.498l-.002-3c-.001-1.381 1.117-2.501 2.498-2.502h.002c1.38 0 2.499 1.118 2.5 2.498l.002 3c.001 1.381-1.117 2.501-2.498 2.502-.001 0-.002 0-.002 0zm-.011-13c-1.38 0-2.499-1.118-2.5-2.498l.007-9.938c0-6.332-2.561-12.525-7.026-16.99l-24.673-24.658c-.977-.977-.977-2.56-.001-3.536s2.56-.975 3.535-.001l24.674 24.659c5.397 5.396 8.492 12.878 8.492 20.526l-.007 9.934c.001 1.381-1.117 2.501-2.498 2.502-.002 0-.003 0-.003 0z" fill="#FBE0E2" data-original="#fbe0e2"></path><path d="m127.064 67.871c-1.175-5.068-1.952-8.416-8.821-10.686-2.284-.754-2.279-3.995 0-4.748 3.987-1.317 6.868-2.269 8.821-10.686.597-2.566 4.272-2.573 4.871 0 2 8.617 5 9.425 8.821 10.687 2.284.754 2.279 3.994 0 4.747-3.988 1.318-6.869 2.271-8.821 10.686-.597 2.578-4.273 2.579-4.871 0z" fill="#000000" data-original="#000000"></path><path d="m133.88 54.835c-1.63 1.1-3.09 2.61-4.32 4.89-.99-1.76-2.41-3.42-4.57-4.85 1.72-1.13 3.24-2.69 4.52-5.1 1.3 2.45 2.81 4 4.37 5.06z" fill="#F0C020" data-original="#f0c020"></path><path d="m58.474 150.821c-1.175-5.068-1.952-8.416-8.821-10.686-2.284-.754-2.279-3.995 0-4.748 3.987-1.317 6.868-2.269 8.821-10.686.597-2.566 4.272-2.573 4.871 0 2 8.617 5 9.425 8.821 10.687 2.284.754 2.279 3.994 0 4.747-3.988 1.318-6.869 2.271-8.821 10.686-.597 2.578-4.273 2.578-4.871 0z" fill="#000000" data-original="#000000"></path><path d="m65.29 137.784c-1.63 1.1-3.09 2.61-4.32 4.89-.99-1.76-2.41-3.42-4.57-4.85 1.72-1.13 3.24-2.69 4.52-5.1 1.3 2.45 2.81 4 4.37 5.06z" fill="#F0C020" data-original="#f0c020"></path><path d="m195.655 150.821c-1.175-5.068-1.952-8.416-8.821-10.686-2.284-.754-2.279-3.995 0-4.748 3.987-1.317 6.868-2.269 8.821-10.686.597-2.566 4.272-2.573 4.871 0 2 8.617 5 9.425 8.821 10.687 2.284.754 2.279 3.994 0 4.747-3.988 1.318-6.869 2.271-8.821 10.686-.598 2.578-4.273 2.578-4.871 0z" fill="#000000" data-original="#000000"></path><path d="m202.47 137.784c-1.63 1.1-3.09 2.61-4.32 4.89-.99-1.76-2.41-3.42-4.57-4.85 1.72-1.13 3.24-2.69 4.52-5.1 1.3 2.45 2.81 4 4.37 5.06z" fill="#F0C020" data-original="#f0c020"></path><path d="m239.85 132.569c-6.45 0-11.71 5.25-11.72 11.7l-.33 29.92v.03c0 1.44-.56 2.79-1.59 3.82l-28.76 28.77c-2.587 2.588-7.075 2.8-9.65.29-2.705-2.624-2.748-6.911-.09-9.609l11.67-11.66c4.162-4.163 4.46-10.994.3-15.351-4.118-4.299-11.153-4.596-15.58-.17-3.09 3.09-4.32 4.32-5.77 5.771-.97.97-.978 2.551 0 3.529.95.95 2.6.95 3.54 0 1.45-1.439 2.68-2.67 5.77-5.77 2.311-2.311 6.122-2.311 8.43.1 2.301 2.413 1.973 6.147-.22 8.36l-11.67 11.66c-4.725 4.725-4.488 12.265.14 16.729 4.594 4.465 12.196 4.115 16.66-.35l28.77-28.771c1.96-1.96 3.04-4.56 3.05-7.319l.32-29.931v-.02c.01-3.71 3.03-6.72 6.73-6.73 3.69.011 6.7 3.021 6.71 6.73l-.33 41.27c0 2.04-.79 3.95-2.23 5.4l-46.86 46.87c-2.17 2.16-3.36 5.04-3.36 8.1v4.29c0 1.38 1.12 2.5 2.5 2.5s2.5-1.12 2.5-2.5v-4.29c0-1.699.69-3.37 1.89-4.569l46.86-46.87c2.39-2.391 3.7-5.55 3.7-8.91l.33-41.28c0-6.468-5.26-11.739-11.71-11.739z" fill="#000000" data-original="#000000"></path><path d="m171.29 183.12c-.981.98-.965 2.565 0 3.529.959.961 2.551.99 3.54 0 0 0 0 0 0-.01 1.011-1.01.937-2.584 0-3.52-.95-.949-2.59-.949-3.54.001z" fill="#000000" data-original="#000000"></path><path d="m164.23 190.17c-2.788 2.788-.632.619-4.8 4.79-6.946 6.967-10.81 15.989-10.81 27.09 0 0-.01-.974-.01 28.18 0 1.38 1.13 2.5 2.51 2.5 1.37 0 2.5-1.12 2.5-2.5 0-.01-.01-.01-.01-.02 0-28.992.02-28.021.02-28.021-.241-9.374 3.406-17.766 9.34-23.689l4.79-4.79c.98-.98.98-2.561.01-3.54-.95-.941-2.59-.941-3.54 0z" fill="#000000" data-original="#000000"></path><path d="m30.98 210.479c-.97.98-.97 2.57 0 3.54.944.945 2.516 1.004 3.54 0 .97-.97.97-2.56 0-3.529-.95-.95-2.59-.95-3.54-.011z" fill="#000000" data-original="#000000"></path><path d="m41.59 217.56c-.95-.95-2.59-.95-3.54 0-.978.978-.97 2.56 0 3.53l20.28 20.28c1.2 1.199 1.89 2.87 1.89 4.569v4.29c0 1.38 1.12 2.5 2.5 2.5s2.5-1.12 2.5-2.5c0-.01 0-.01 0-.02v-4.271c0-3.06-1.19-5.939-3.36-8.1z" fill="#000000" data-original="#000000"></path><path d="m99.57 194.96-24.67-24.65c-4.369-4.368-11.383-4.191-15.58.17-4.142 4.314-3.869 11.181.3 15.351l11.67 11.66c2.637 2.678 2.623 6.978-.09 9.609-2.595 2.53-7.105 2.276-9.65-.29l-28.76-28.77c-1.02-1.03-1.59-2.38-1.59-3.82l-.32-29.95c0-.01 0-.01 0-.01-.03-6.44-5.28-11.69-11.73-11.69s-11.7 5.261-11.7 11.73l.32 41.31c0 3.301 1.35 6.54 3.7 8.891l12.44 12.45c.94.939 2.59.949 3.54 0 .943-.944 1.005-2.515 0-3.54l-12.45-12.441c-1.44-1.45-2.23-3.36-2.23-5.38l-.33-41.32c.01-3.689 3.02-6.689 6.71-6.7 3.7.011 6.72 3.021 6.73 6.73l.32 29.95c0 2.76 1.09 5.359 3.05 7.319l28.76 28.771c4.435 4.416 12.011 4.857 16.67.35 4.557-4.375 4.916-11.922.15-16.729l-11.68-11.661c-2.199-2.2-2.516-5.952-.22-8.36 2.308-2.411 6.12-2.411 8.43-.1l24.67 24.66c6.03 6.029 9.36 14.06 9.36 22.6v29.13c0 1.38 1.12 2.5 2.5 2.5s2.5-1.12 2.5-2.5c-.026-74.537 0 25.043 0-29.13 0-9.534-3.681-18.981-10.82-26.14z" fill="#000000" data-original="#000000"></path><g><path d="m243.391 67.056-5.213-3.01c1.362-5.939 1.415-12.299 0-18.466l5.213-3.01c.994-.574 1.334-1.844.76-2.838l-9.971-17.27c-.574-.993-1.844-1.334-2.838-.76l-5.223 3.016c-4.294-4.001-9.443-7.093-15.145-8.973v-6.285c0-1.147-.93-2.077-2.077-2.077h-21.614c-1.147 0-2.077.93-2.077 2.077v6.285c-5.702 1.88-10.852 4.972-15.145 8.973l-5.223-3.016c-.994-.574-2.264-.233-2.838.76l-9.971 17.27c-.574.994-.233 2.264.76 2.838l5.213 3.01c-1.362 5.939-1.415 12.299 0 18.466l-5.213 3.01c-.994.574-1.334 1.844-.76 2.838l9.971 17.269c.574.993 1.844 1.334 2.838.76l5.223-3.016c4.294 4.001 9.443 7.093 15.145 8.973v6.285c0 1.147.93 2.077 2.077 2.077h21.614c1.147 0 2.077-.93 2.077-2.077v-6.285c5.702-1.88 10.852-4.972 15.145-8.973l5.223 3.016c.994.574 2.264.233 2.838-.76l9.971-17.27c.574-.993.233-2.264-.76-2.837z" fill="#72C2E9" data-original="#72c2e9"></path><ellipse cx="198.09" cy="54.815" fill="#EEEEEE" rx="22.565" ry="22.565" transform="matrix(.383 -.924 .924 .383 71.642 216.85)" data-original="#eeeeee"></ellipse><path d="m246.32 38.479-9.97-17.27c-1.263-2.173-4.083-2.959-6.27-1.66-.01 0-.01 0-.01 0l-3.64 2.1c-3.86-3.31-8.22-5.89-12.96-7.67v-4.519c0-2.521-2.05-4.58-4.57-4.58h-21.62c-2.52 0-4.57 2.06-4.57 4.58v4.52c-4.74 1.78-9.1 4.36-12.96 7.67l-3.66-2.109c-2.272-1.299-5.018-.471-6.26 1.68l-9.97 17.26c-1.255 2.197-.517 4.983 1.68 6.25l3.65 2.11c-.962 5.231-.983 10.595 0 15.939l-3.65 2.11c-2.208 1.275-2.928 4.099-1.68 6.25l9.98 17.271c1.271 2.211 4.055 2.921 6.23 1.689l3.67-2.12c3.87 3.3 8.23 5.88 12.97 7.67v4.521c0 2.52 2.05 4.57 4.57 4.57h21.62c2.52 0 4.57-2.051 4.57-4.57v-4.521c4.74-1.79 9.1-4.37 12.97-7.67l3.65 2.11c2.125 1.233 4.954.559 6.25-1.67l9.98-17.28c1.244-2.145.535-4.958-1.67-6.24 0-.01 0-.01-.01-.01l-3.65-2.11c.962-5.232.983-10.595 0-15.939l3.65-2.11c2.158-1.232 2.953-4.023 1.68-6.252zm-9.39 4.931c-.94.55-1.43 1.67-1.19 2.729 1.305 5.682 1.308 11.634 0 17.351-.24 1.06.25 2.18 1.19 2.72l4.85 2.8-9.55 16.53-4.86-2.8c-.93-.53-2.17-.391-2.95.34-4.06 3.779-8.98 6.699-14.23 8.43-1.02.34-1.71 1.29-1.71 2.37v5.86h-20.77v-5.86c0-1.08-.69-2.03-1.72-2.37-5.24-1.73-10.16-4.65-14.23-8.43-.78-.73-2.02-.87-2.95-.34l-4.86 2.81-9.54-16.54 4.84-2.8c.94-.54 1.43-1.66 1.19-2.72-1.306-5.709-1.307-11.658 0-17.351.24-1.06-.25-2.18-1.19-2.729l-4.85-2.79 9.55-16.54 4.86 2.8c.93.54 2.17.399 2.95-.33 4.07-3.79 8.99-6.7 14.23-8.43 1.03-.341 1.72-1.29 1.72-2.37v-5.87h20.77v5.87c0 1.08.69 2.029 1.71 2.37 5.24 1.729 10.16 4.64 14.23 8.43.78.729 2.02.87 2.95.33l4.86-2.8 9.55 16.54z" fill="#000000" data-original="#000000"></path><path d="m198.09 29.75c-13.794 0-25.049 11.138-25.07 25.06.02 13.894 11.241 25.07 25.07 25.07 13.82 0 25.06-11.24 25.06-25.07 0-13.875-11.223-25.06-25.06-25.06zm0 45.13c-11.04-.021-20.04-9.021-20.06-20.07.02-11.04 9.02-20.04 20.06-20.06 11.04.02 20.05 9.02 20.07 20.06-.02 11.049-9.03 20.049-20.07 20.07z" fill="#000000" data-original="#000000"></path></g><g><path d="m174.801 150.005-5.213-3.01c1.362-5.939 1.415-12.299 0-18.466l5.213-3.01c.994-.574 1.334-1.844.76-2.838l-9.971-17.27c-.574-.993-1.844-1.334-2.838-.76l-5.223 3.016c-4.294-4.001-9.443-7.093-15.145-8.973v-6.284c0-1.147-.93-2.077-2.077-2.077h-21.614c-1.147 0-2.077.93-2.077 2.077v6.285c-5.702 1.88-10.852 4.972-15.145 8.973l-5.223-3.016c-.994-.574-2.264-.233-2.838.76l-9.971 17.27c-.574.994-.233 2.264.76 2.838l5.213 3.01c-1.362 5.939-1.415 12.299 0 18.466l-5.213 3.01c-.994.574-1.334 1.844-.76 2.838l9.971 17.27c.574.993 1.844 1.334 2.838.76l5.223-3.016c4.294 4.001 9.443 7.093 15.145 8.973v6.285c0 1.147.93 2.077 2.077 2.077h21.614c1.147 0 2.077-.93 2.077-2.077v-6.285c5.702-1.88 10.852-4.972 15.145-8.973l5.223 3.016c.994.574 2.264.233 2.838-.76l9.971-17.27c.574-.995.234-2.265-.76-2.839z" fill="#EFBF27" data-original="#efbf27"></path><ellipse cx="129.5" cy="137.765" fill="#EEEEEE" rx="22.565" ry="22.565" transform="matrix(.383 -.924 .924 .383 -47.335 204.687)" data-original="#eeeeee"></ellipse><path d="m177.73 121.429-9.97-17.27c-1.263-2.173-4.083-2.959-6.27-1.66-.01 0-.01 0-.01 0l-3.64 2.1c-3.86-3.31-8.22-5.89-12.96-7.67v-4.52c0-2.521-2.05-4.58-4.57-4.58h-21.62c-2.52 0-4.57 2.06-4.57 4.58v4.52c-4.74 1.78-9.1 4.36-12.96 7.67l-3.66-2.109c-2.272-1.299-5.018-.471-6.26 1.68l-9.97 17.26c-1.255 2.197-.517 4.983 1.68 6.25l3.65 2.11c-.962 5.231-.983 10.595 0 15.939l-3.65 2.11c-2.208 1.275-2.928 4.099-1.68 6.25l9.98 17.271c1.271 2.211 4.055 2.921 6.23 1.689l3.67-2.12c3.87 3.3 8.23 5.88 12.97 7.67v4.521c0 2.52 2.05 4.57 4.57 4.57h21.62c2.52 0 4.57-2.051 4.57-4.57v-4.521c4.74-1.79 9.1-4.37 12.97-7.67l3.65 2.11c2.125 1.233 4.954.559 6.25-1.67l9.98-17.28c1.244-2.145.535-4.958-1.67-6.24 0-.01 0-.01-.01-.01l-3.65-2.11c.962-5.232.983-10.595 0-15.939l3.65-2.11c2.158-1.231 2.953-4.022 1.68-6.251zm-9.39 4.931c-.94.55-1.43 1.67-1.19 2.729 1.305 5.682 1.308 11.634 0 17.351-.24 1.06.25 2.18 1.19 2.72l4.85 2.8-9.55 16.53-4.86-2.8c-.93-.53-2.17-.391-2.95.34-4.06 3.779-8.98 6.699-14.23 8.43-1.02.34-1.71 1.29-1.71 2.37v5.86h-20.77v-5.86c0-1.08-.69-2.03-1.72-2.37-5.24-1.73-10.16-4.65-14.23-8.43-.78-.73-2.02-.87-2.95-.34l-4.86 2.81-9.54-16.54 4.84-2.8c.94-.54 1.43-1.66 1.19-2.72-1.306-5.709-1.307-11.658 0-17.351.24-1.06-.25-2.18-1.19-2.729l-4.85-2.79 9.55-16.54 4.86 2.8c.93.54 2.17.399 2.95-.33 4.07-3.79 8.99-6.7 14.23-8.43 1.03-.341 1.72-1.29 1.72-2.37v-5.87h20.77v5.87c0 1.08.69 2.029 1.71 2.37 5.24 1.729 10.16 4.64 14.23 8.43.78.729 2.02.87 2.95.33l4.86-2.8 9.55 16.54z" fill="#000000" data-original="#000000"></path><path d="m129.5 112.7c-13.794 0-25.049 11.138-25.07 25.06.02 13.894 11.241 25.07 25.07 25.07 13.82 0 25.06-11.24 25.06-25.07 0-13.875-11.223-25.06-25.06-25.06zm0 45.13c-11.04-.021-20.04-9.021-20.06-20.07.02-11.04 9.02-20.04 20.06-20.06 11.04.02 20.05 9.02 20.07 20.06-.02 11.049-9.03 20.049-20.07 20.07z" fill="#000000" data-original="#000000"></path></g><g><path d="m106.211 67.056-5.213-3.01c1.362-5.939 1.415-12.299 0-18.466l5.213-3.01c.994-.574 1.334-1.844.76-2.838l-9.971-17.27c-.574-.993-1.844-1.334-2.838-.76l-5.223 3.016c-4.294-4.001-9.443-7.093-15.145-8.973v-6.285c0-1.147-.93-2.077-2.077-2.077h-21.613c-1.147 0-2.077.93-2.077 2.077v6.285c-5.702 1.88-10.852 4.972-15.145 8.973l-5.223-3.016c-.994-.574-2.264-.233-2.838.76l-9.971 17.27c-.574.994-.233 2.264.76 2.838l5.213 3.01c-1.362 5.939-1.415 12.299 0 18.466l-5.213 3.01c-.994.574-1.334 1.844-.76 2.838l9.971 17.27c.574.993 1.844 1.334 2.838.76l5.223-3.016c4.294 4.001 9.443 7.093 15.145 8.973v6.285c0 1.147.93 2.077 2.077 2.077h21.614c1.147 0 2.077-.93 2.077-2.077v-6.286c5.702-1.88 10.852-4.972 15.145-8.973l5.223 3.016c.994.574 2.264.233 2.838-.76l9.971-17.27c.573-.993.233-2.264-.761-2.837z" fill="#FC5D3D" data-original="#fc5d3d"></path><ellipse cx="60.911" cy="54.815" fill="#EEEEEE" rx="22.565" ry="22.565" transform="matrix(.383 -.924 .924 .383 -13.041 90.112)" data-original="#eeeeee"></ellipse><path d="m109.14 38.479-9.97-17.27c-1.263-2.173-4.083-2.959-6.27-1.66-.01 0-.01 0-.01 0l-3.64 2.1c-3.86-3.31-8.22-5.89-12.96-7.67v-4.519c0-2.521-2.05-4.58-4.57-4.58h-21.62c-2.52 0-4.57 2.06-4.57 4.58v4.52c-4.74 1.78-9.1 4.36-12.96 7.67l-3.66-2.109c-2.272-1.299-5.018-.471-6.26 1.68l-9.97 17.26c-1.255 2.197-.517 4.983 1.68 6.25l3.65 2.11c-.962 5.231-.983 10.595 0 15.939l-3.65 2.11c-2.208 1.275-2.928 4.099-1.68 6.25l9.98 17.271c1.271 2.211 4.055 2.921 6.23 1.689l3.67-2.12c3.87 3.3 8.23 5.88 12.97 7.67v4.521c0 2.52 2.05 4.57 4.57 4.57h21.62c2.52 0 4.57-2.051 4.57-4.57v-4.521c4.74-1.79 9.1-4.37 12.97-7.67l3.65 2.11c2.125 1.233 4.954.559 6.25-1.67l9.98-17.28c1.244-2.145.535-4.958-1.67-6.24 0-.01 0-.01-.01-.01l-3.65-2.11c.962-5.232.983-10.595 0-15.939l3.65-2.11c2.158-1.232 2.953-4.023 1.68-6.252zm-9.39 4.931c-.94.55-1.43 1.67-1.19 2.729 1.305 5.682 1.308 11.634 0 17.351-.24 1.06.25 2.18 1.19 2.72l4.85 2.8-9.55 16.53-4.86-2.8c-.93-.53-2.17-.391-2.95.34-4.06 3.779-8.98 6.699-14.23 8.43-1.02.34-1.71 1.29-1.71 2.37v5.86h-20.77v-5.86c0-1.08-.69-2.03-1.72-2.37-5.24-1.73-10.16-4.65-14.23-8.43-.78-.73-2.02-.87-2.95-.34l-4.86 2.81-9.54-16.54 4.84-2.8c.94-.54 1.43-1.66 1.19-2.72-1.306-5.709-1.307-11.658 0-17.351.24-1.06-.25-2.18-1.19-2.729l-4.85-2.79 9.55-16.54 4.86 2.8c.93.54 2.17.399 2.95-.33 4.07-3.79 8.99-6.7 14.23-8.43 1.03-.341 1.72-1.29 1.72-2.37v-5.87h20.77v5.87c0 1.08.69 2.029 1.71 2.37 5.24 1.729 10.16 4.64 14.23 8.43.78.729 2.02.87 2.95.33l4.86-2.8 9.55 16.54z" fill="#000000" data-original="#000000"></path><path d="m60.91 29.75c-13.794 0-25.05 11.138-25.07 25.06.02 13.894 11.241 25.07 25.07 25.07 13.82 0 25.06-11.24 25.06-25.07 0-13.875-11.223-25.06-25.06-25.06zm0 45.13c-11.04-.021-20.04-9.021-20.06-20.07.02-11.04 9.02-20.04 20.06-20.06 11.04.02 20.05 9.02 20.07 20.06-.02 11.049-9.03 20.049-20.07 20.07z" fill="#000000" data-original="#000000"></path></g></g></g></svg>