<svg xmlns="http://www.w3.org/2000/svg" xmlns:xlink="http://www.w3.org/1999/xlink" width="319" height="291" viewBox="0 0 319 291">
  <defs>
    <clipPath id="clip-path">
      <rect width="319" height="291" fill="none"/>
    </clipPath>
  </defs>
  <g id="Repeat_Grid_1" data-name="Repeat Grid 1" clip-path="url(#clip-path)">
    <g transform="translate(-627 -291)">
      <g id="Ellipse_1" data-name="Ellipse 1" transform="translate(627 291)" fill="#185adb" stroke="#707070" stroke-width="1">
        <circle cx="7.5" cy="7.5" r="7.5" stroke="none"/>
        <circle cx="7.5" cy="7.5" r="7" fill="none"/>
      </g>
    </g>
    <g transform="translate(-598 -291)">
      <g id="Ellipse_1-2" data-name="Ellipse 1" transform="translate(627 291)" fill="#185adb" stroke="#707070" stroke-width="1">
        <circle cx="7.5" cy="7.5" r="7.5" stroke="none"/>
        <circle cx="7.5" cy="7.5" r="7" fill="none"/>
      </g>
    </g>
    <g transform="translate(-569 -291)">
      <g id="Ellipse_1-3" data-name="Ellipse 1" transform="translate(627 291)" fill="#185adb" stroke="#707070" stroke-width="1">
        <circle cx="7.5" cy="7.5" r="7.5" stroke="none"/>
        <circle cx="7.5" cy="7.5" r="7" fill="none"/>
      </g>
    </g>
    <g transform="translate(-540 -291)">
      <g id="Ellipse_1-4" data-name="Ellipse 1" transform="translate(627 291)" fill="#185adb" stroke="#707070" stroke-width="1">
        <circle cx="7.5" cy="7.5" r="7.5" stroke="none"/>
        <circle cx="7.5" cy="7.5" r="7" fill="none"/>
      </g>
    </g>
    <g transform="translate(-511 -291)">
      <g id="Ellipse_1-5" data-name="Ellipse 1" transform="translate(627 291)" fill="#185adb" stroke="#707070" stroke-width="1">
        <circle cx="7.5" cy="7.5" r="7.5" stroke="none"/>
        <circle cx="7.5" cy="7.5" r="7" fill="none"/>
      </g>
    </g>
    <g transform="translate(-482 -291)">
      <g id="Ellipse_1-6" data-name="Ellipse 1" transform="translate(627 291)" fill="#185adb" stroke="#707070" stroke-width="1">
        <circle cx="7.5" cy="7.5" r="7.5" stroke="none"/>
        <circle cx="7.5" cy="7.5" r="7" fill="none"/>
      </g>
    </g>
    <g transform="translate(-453 -291)">
      <g id="Ellipse_1-7" data-name="Ellipse 1" transform="translate(627 291)" fill="#185adb" stroke="#707070" stroke-width="1">
        <circle cx="7.5" cy="7.5" r="7.5" stroke="none"/>
        <circle cx="7.5" cy="7.5" r="7" fill="none"/>
      </g>
    </g>
    <g transform="translate(-424 -291)">
      <g id="Ellipse_1-8" data-name="Ellipse 1" transform="translate(627 291)" fill="#185adb" stroke="#707070" stroke-width="1">
        <circle cx="7.5" cy="7.5" r="7.5" stroke="none"/>
        <circle cx="7.5" cy="7.5" r="7" fill="none"/>
      </g>
    </g>
    <g transform="translate(-395 -291)">
      <g id="Ellipse_1-9" data-name="Ellipse 1" transform="translate(627 291)" fill="#185adb" stroke="#707070" stroke-width="1">
        <circle cx="7.5" cy="7.5" r="7.5" stroke="none"/>
        <circle cx="7.5" cy="7.5" r="7" fill="none"/>
      </g>
    </g>
    <g transform="translate(-366 -291)">
      <g id="Ellipse_1-10" data-name="Ellipse 1" transform="translate(627 291)" fill="#185adb" stroke="#707070" stroke-width="1">
        <circle cx="7.5" cy="7.5" r="7.5" stroke="none"/>
        <circle cx="7.5" cy="7.5" r="7" fill="none"/>
      </g>
    </g>
    <g transform="translate(-337 -291)">
      <g id="Ellipse_1-11" data-name="Ellipse 1" transform="translate(627 291)" fill="#185adb" stroke="#707070" stroke-width="1">
        <circle cx="7.5" cy="7.5" r="7.5" stroke="none"/>
        <circle cx="7.5" cy="7.5" r="7" fill="none"/>
      </g>
    </g>
    <g transform="translate(-627 -261)">
      <g id="Ellipse_1-12" data-name="Ellipse 1" transform="translate(627 291)" fill="#185adb" stroke="#707070" stroke-width="1">
        <circle cx="7.5" cy="7.5" r="7.5" stroke="none"/>
        <circle cx="7.5" cy="7.5" r="7" fill="none"/>
      </g>
    </g>
    <g transform="translate(-598 -261)">
      <g id="Ellipse_1-13" data-name="Ellipse 1" transform="translate(627 291)" fill="#185adb" stroke="#707070" stroke-width="1">
        <circle cx="7.5" cy="7.5" r="7.5" stroke="none"/>
        <circle cx="7.5" cy="7.5" r="7" fill="none"/>
      </g>
    </g>
    <g transform="translate(-569 -261)">
      <g id="Ellipse_1-14" data-name="Ellipse 1" transform="translate(627 291)" fill="#185adb" stroke="#707070" stroke-width="1">
        <circle cx="7.5" cy="7.5" r="7.5" stroke="none"/>
        <circle cx="7.5" cy="7.5" r="7" fill="none"/>
      </g>
    </g>
    <g transform="translate(-540 -261)">
      <g id="Ellipse_1-15" data-name="Ellipse 1" transform="translate(627 291)" fill="#185adb" stroke="#707070" stroke-width="1">
        <circle cx="7.5" cy="7.5" r="7.5" stroke="none"/>
        <circle cx="7.5" cy="7.5" r="7" fill="none"/>
      </g>
    </g>
    <g transform="translate(-511 -261)">
      <g id="Ellipse_1-16" data-name="Ellipse 1" transform="translate(627 291)" fill="#185adb" stroke="#707070" stroke-width="1">
        <circle cx="7.5" cy="7.5" r="7.5" stroke="none"/>
        <circle cx="7.5" cy="7.5" r="7" fill="none"/>
      </g>
    </g>
    <g transform="translate(-482 -261)">
      <g id="Ellipse_1-17" data-name="Ellipse 1" transform="translate(627 291)" fill="#185adb" stroke="#707070" stroke-width="1">
        <circle cx="7.5" cy="7.5" r="7.5" stroke="none"/>
        <circle cx="7.5" cy="7.5" r="7" fill="none"/>
      </g>
    </g>
    <g transform="translate(-453 -261)">
      <g id="Ellipse_1-18" data-name="Ellipse 1" transform="translate(627 291)" fill="#185adb" stroke="#707070" stroke-width="1">
        <circle cx="7.5" cy="7.5" r="7.5" stroke="none"/>
        <circle cx="7.5" cy="7.5" r="7" fill="none"/>
      </g>
    </g>
    <g transform="translate(-424 -261)">
      <g id="Ellipse_1-19" data-name="Ellipse 1" transform="translate(627 291)" fill="#185adb" stroke="#707070" stroke-width="1">
        <circle cx="7.5" cy="7.5" r="7.5" stroke="none"/>
        <circle cx="7.5" cy="7.5" r="7" fill="none"/>
      </g>
    </g>
    <g transform="translate(-395 -261)">
      <g id="Ellipse_1-20" data-name="Ellipse 1" transform="translate(627 291)" fill="#185adb" stroke="#707070" stroke-width="1">
        <circle cx="7.5" cy="7.5" r="7.5" stroke="none"/>
        <circle cx="7.5" cy="7.5" r="7" fill="none"/>
      </g>
    </g>
    <g transform="translate(-366 -261)">
      <g id="Ellipse_1-21" data-name="Ellipse 1" transform="translate(627 291)" fill="#185adb" stroke="#707070" stroke-width="1">
        <circle cx="7.5" cy="7.5" r="7.5" stroke="none"/>
        <circle cx="7.5" cy="7.5" r="7" fill="none"/>
      </g>
    </g>
    <g transform="translate(-337 -261)">
      <g id="Ellipse_1-22" data-name="Ellipse 1" transform="translate(627 291)" fill="#185adb" stroke="#707070" stroke-width="1">
        <circle cx="7.5" cy="7.5" r="7.5" stroke="none"/>
        <circle cx="7.5" cy="7.5" r="7" fill="none"/>
      </g>
    </g>
    <g transform="translate(-627 -231)">
      <g id="Ellipse_1-23" data-name="Ellipse 1" transform="translate(627 291)" fill="#185adb" stroke="#707070" stroke-width="1">
        <circle cx="7.5" cy="7.5" r="7.5" stroke="none"/>
        <circle cx="7.5" cy="7.5" r="7" fill="none"/>
      </g>
    </g>
    <g transform="translate(-598 -231)">
      <g id="Ellipse_1-24" data-name="Ellipse 1" transform="translate(627 291)" fill="#185adb" stroke="#707070" stroke-width="1">
        <circle cx="7.5" cy="7.5" r="7.5" stroke="none"/>
        <circle cx="7.5" cy="7.5" r="7" fill="none"/>
      </g>
    </g>
    <g transform="translate(-569 -231)">
      <g id="Ellipse_1-25" data-name="Ellipse 1" transform="translate(627 291)" fill="#185adb" stroke="#707070" stroke-width="1">
        <circle cx="7.5" cy="7.5" r="7.5" stroke="none"/>
        <circle cx="7.5" cy="7.5" r="7" fill="none"/>
      </g>
    </g>
    <g transform="translate(-540 -231)">
      <g id="Ellipse_1-26" data-name="Ellipse 1" transform="translate(627 291)" fill="#185adb" stroke="#707070" stroke-width="1">
        <circle cx="7.5" cy="7.5" r="7.5" stroke="none"/>
        <circle cx="7.5" cy="7.5" r="7" fill="none"/>
      </g>
    </g>
    <g transform="translate(-511 -231)">
      <g id="Ellipse_1-27" data-name="Ellipse 1" transform="translate(627 291)" fill="#185adb" stroke="#707070" stroke-width="1">
        <circle cx="7.5" cy="7.5" r="7.5" stroke="none"/>
        <circle cx="7.5" cy="7.5" r="7" fill="none"/>
      </g>
    </g>
    <g transform="translate(-482 -231)">
      <g id="Ellipse_1-28" data-name="Ellipse 1" transform="translate(627 291)" fill="#185adb" stroke="#707070" stroke-width="1">
        <circle cx="7.5" cy="7.5" r="7.5" stroke="none"/>
        <circle cx="7.5" cy="7.5" r="7" fill="none"/>
      </g>
    </g>
    <g transform="translate(-453 -231)">
      <g id="Ellipse_1-29" data-name="Ellipse 1" transform="translate(627 291)" fill="#185adb" stroke="#707070" stroke-width="1">
        <circle cx="7.5" cy="7.5" r="7.5" stroke="none"/>
        <circle cx="7.5" cy="7.5" r="7" fill="none"/>
      </g>
    </g>
    <g transform="translate(-424 -231)">
      <g id="Ellipse_1-30" data-name="Ellipse 1" transform="translate(627 291)" fill="#185adb" stroke="#707070" stroke-width="1">
        <circle cx="7.5" cy="7.5" r="7.5" stroke="none"/>
        <circle cx="7.5" cy="7.5" r="7" fill="none"/>
      </g>
    </g>
    <g transform="translate(-395 -231)">
      <g id="Ellipse_1-31" data-name="Ellipse 1" transform="translate(627 291)" fill="#185adb" stroke="#707070" stroke-width="1">
        <circle cx="7.5" cy="7.5" r="7.5" stroke="none"/>
        <circle cx="7.5" cy="7.5" r="7" fill="none"/>
      </g>
    </g>
    <g transform="translate(-366 -231)">
      <g id="Ellipse_1-32" data-name="Ellipse 1" transform="translate(627 291)" fill="#185adb" stroke="#707070" stroke-width="1">
        <circle cx="7.5" cy="7.5" r="7.5" stroke="none"/>
        <circle cx="7.5" cy="7.5" r="7" fill="none"/>
      </g>
    </g>
    <g transform="translate(-337 -231)">
      <g id="Ellipse_1-33" data-name="Ellipse 1" transform="translate(627 291)" fill="#185adb" stroke="#707070" stroke-width="1">
        <circle cx="7.5" cy="7.5" r="7.5" stroke="none"/>
        <circle cx="7.5" cy="7.5" r="7" fill="none"/>
      </g>
    </g>
    <g transform="translate(-627 -201)">
      <g id="Ellipse_1-34" data-name="Ellipse 1" transform="translate(627 291)" fill="#185adb" stroke="#707070" stroke-width="1">
        <circle cx="7.5" cy="7.5" r="7.5" stroke="none"/>
        <circle cx="7.5" cy="7.5" r="7" fill="none"/>
      </g>
    </g>
    <g transform="translate(-598 -201)">
      <g id="Ellipse_1-35" data-name="Ellipse 1" transform="translate(627 291)" fill="#185adb" stroke="#707070" stroke-width="1">
        <circle cx="7.5" cy="7.5" r="7.5" stroke="none"/>
        <circle cx="7.5" cy="7.5" r="7" fill="none"/>
      </g>
    </g>
    <g transform="translate(-569 -201)">
      <g id="Ellipse_1-36" data-name="Ellipse 1" transform="translate(627 291)" fill="#185adb" stroke="#707070" stroke-width="1">
        <circle cx="7.5" cy="7.5" r="7.5" stroke="none"/>
        <circle cx="7.5" cy="7.5" r="7" fill="none"/>
      </g>
    </g>
    <g transform="translate(-540 -201)">
      <g id="Ellipse_1-37" data-name="Ellipse 1" transform="translate(627 291)" fill="#185adb" stroke="#707070" stroke-width="1">
        <circle cx="7.5" cy="7.5" r="7.5" stroke="none"/>
        <circle cx="7.5" cy="7.5" r="7" fill="none"/>
      </g>
    </g>
    <g transform="translate(-511 -201)">
      <g id="Ellipse_1-38" data-name="Ellipse 1" transform="translate(627 291)" fill="#185adb" stroke="#707070" stroke-width="1">
        <circle cx="7.5" cy="7.5" r="7.5" stroke="none"/>
        <circle cx="7.5" cy="7.5" r="7" fill="none"/>
      </g>
    </g>
    <g transform="translate(-482 -201)">
      <g id="Ellipse_1-39" data-name="Ellipse 1" transform="translate(627 291)" fill="#185adb" stroke="#707070" stroke-width="1">
        <circle cx="7.5" cy="7.5" r="7.5" stroke="none"/>
        <circle cx="7.5" cy="7.5" r="7" fill="none"/>
      </g>
    </g>
    <g transform="translate(-453 -201)">
      <g id="Ellipse_1-40" data-name="Ellipse 1" transform="translate(627 291)" fill="#185adb" stroke="#707070" stroke-width="1">
        <circle cx="7.5" cy="7.5" r="7.5" stroke="none"/>
        <circle cx="7.5" cy="7.5" r="7" fill="none"/>
      </g>
    </g>
    <g transform="translate(-424 -201)">
      <g id="Ellipse_1-41" data-name="Ellipse 1" transform="translate(627 291)" fill="#185adb" stroke="#707070" stroke-width="1">
        <circle cx="7.5" cy="7.5" r="7.5" stroke="none"/>
        <circle cx="7.5" cy="7.5" r="7" fill="none"/>
      </g>
    </g>
    <g transform="translate(-395 -201)">
      <g id="Ellipse_1-42" data-name="Ellipse 1" transform="translate(627 291)" fill="#185adb" stroke="#707070" stroke-width="1">
        <circle cx="7.5" cy="7.5" r="7.5" stroke="none"/>
        <circle cx="7.5" cy="7.5" r="7" fill="none"/>
      </g>
    </g>
    <g transform="translate(-366 -201)">
      <g id="Ellipse_1-43" data-name="Ellipse 1" transform="translate(627 291)" fill="#185adb" stroke="#707070" stroke-width="1">
        <circle cx="7.5" cy="7.5" r="7.5" stroke="none"/>
        <circle cx="7.5" cy="7.5" r="7" fill="none"/>
      </g>
    </g>
    <g transform="translate(-337 -201)">
      <g id="Ellipse_1-44" data-name="Ellipse 1" transform="translate(627 291)" fill="#185adb" stroke="#707070" stroke-width="1">
        <circle cx="7.5" cy="7.5" r="7.5" stroke="none"/>
        <circle cx="7.5" cy="7.5" r="7" fill="none"/>
      </g>
    </g>
    <g transform="translate(-627 -171)">
      <g id="Ellipse_1-45" data-name="Ellipse 1" transform="translate(627 291)" fill="#185adb" stroke="#707070" stroke-width="1">
        <circle cx="7.5" cy="7.5" r="7.5" stroke="none"/>
        <circle cx="7.5" cy="7.5" r="7" fill="none"/>
      </g>
    </g>
    <g transform="translate(-598 -171)">
      <g id="Ellipse_1-46" data-name="Ellipse 1" transform="translate(627 291)" fill="#185adb" stroke="#707070" stroke-width="1">
        <circle cx="7.5" cy="7.5" r="7.5" stroke="none"/>
        <circle cx="7.5" cy="7.5" r="7" fill="none"/>
      </g>
    </g>
    <g transform="translate(-569 -171)">
      <g id="Ellipse_1-47" data-name="Ellipse 1" transform="translate(627 291)" fill="#185adb" stroke="#707070" stroke-width="1">
        <circle cx="7.5" cy="7.5" r="7.5" stroke="none"/>
        <circle cx="7.5" cy="7.5" r="7" fill="none"/>
      </g>
    </g>
    <g transform="translate(-540 -171)">
      <g id="Ellipse_1-48" data-name="Ellipse 1" transform="translate(627 291)" fill="#185adb" stroke="#707070" stroke-width="1">
        <circle cx="7.5" cy="7.5" r="7.5" stroke="none"/>
        <circle cx="7.5" cy="7.5" r="7" fill="none"/>
      </g>
    </g>
    <g transform="translate(-511 -171)">
      <g id="Ellipse_1-49" data-name="Ellipse 1" transform="translate(627 291)" fill="#185adb" stroke="#707070" stroke-width="1">
        <circle cx="7.5" cy="7.5" r="7.5" stroke="none"/>
        <circle cx="7.5" cy="7.5" r="7" fill="none"/>
      </g>
    </g>
    <g transform="translate(-482 -171)">
      <g id="Ellipse_1-50" data-name="Ellipse 1" transform="translate(627 291)" fill="#185adb" stroke="#707070" stroke-width="1">
        <circle cx="7.5" cy="7.5" r="7.5" stroke="none"/>
        <circle cx="7.5" cy="7.5" r="7" fill="none"/>
      </g>
    </g>
    <g transform="translate(-453 -171)">
      <g id="Ellipse_1-51" data-name="Ellipse 1" transform="translate(627 291)" fill="#185adb" stroke="#707070" stroke-width="1">
        <circle cx="7.5" cy="7.5" r="7.5" stroke="none"/>
        <circle cx="7.5" cy="7.5" r="7" fill="none"/>
      </g>
    </g>
    <g transform="translate(-424 -171)">
      <g id="Ellipse_1-52" data-name="Ellipse 1" transform="translate(627 291)" fill="#185adb" stroke="#707070" stroke-width="1">
        <circle cx="7.5" cy="7.5" r="7.5" stroke="none"/>
        <circle cx="7.5" cy="7.5" r="7" fill="none"/>
      </g>
    </g>
    <g transform="translate(-395 -171)">
      <g id="Ellipse_1-53" data-name="Ellipse 1" transform="translate(627 291)" fill="#185adb" stroke="#707070" stroke-width="1">
        <circle cx="7.5" cy="7.5" r="7.5" stroke="none"/>
        <circle cx="7.5" cy="7.5" r="7" fill="none"/>
      </g>
    </g>
    <g transform="translate(-366 -171)">
      <g id="Ellipse_1-54" data-name="Ellipse 1" transform="translate(627 291)" fill="#185adb" stroke="#707070" stroke-width="1">
        <circle cx="7.5" cy="7.5" r="7.5" stroke="none"/>
        <circle cx="7.5" cy="7.5" r="7" fill="none"/>
      </g>
    </g>
    <g transform="translate(-337 -171)">
      <g id="Ellipse_1-55" data-name="Ellipse 1" transform="translate(627 291)" fill="#185adb" stroke="#707070" stroke-width="1">
        <circle cx="7.5" cy="7.5" r="7.5" stroke="none"/>
        <circle cx="7.5" cy="7.5" r="7" fill="none"/>
      </g>
    </g>
    <g transform="translate(-627 -141)">
      <g id="Ellipse_1-56" data-name="Ellipse 1" transform="translate(627 291)" fill="#185adb" stroke="#707070" stroke-width="1">
        <circle cx="7.5" cy="7.5" r="7.5" stroke="none"/>
        <circle cx="7.5" cy="7.5" r="7" fill="none"/>
      </g>
    </g>
    <g transform="translate(-598 -141)">
      <g id="Ellipse_1-57" data-name="Ellipse 1" transform="translate(627 291)" fill="#185adb" stroke="#707070" stroke-width="1">
        <circle cx="7.5" cy="7.5" r="7.5" stroke="none"/>
        <circle cx="7.5" cy="7.5" r="7" fill="none"/>
      </g>
    </g>
    <g transform="translate(-569 -141)">
      <g id="Ellipse_1-58" data-name="Ellipse 1" transform="translate(627 291)" fill="#185adb" stroke="#707070" stroke-width="1">
        <circle cx="7.5" cy="7.5" r="7.5" stroke="none"/>
        <circle cx="7.5" cy="7.5" r="7" fill="none"/>
      </g>
    </g>
    <g transform="translate(-540 -141)">
      <g id="Ellipse_1-59" data-name="Ellipse 1" transform="translate(627 291)" fill="#185adb" stroke="#707070" stroke-width="1">
        <circle cx="7.5" cy="7.5" r="7.5" stroke="none"/>
        <circle cx="7.5" cy="7.5" r="7" fill="none"/>
      </g>
    </g>
    <g transform="translate(-511 -141)">
      <g id="Ellipse_1-60" data-name="Ellipse 1" transform="translate(627 291)" fill="#185adb" stroke="#707070" stroke-width="1">
        <circle cx="7.5" cy="7.5" r="7.5" stroke="none"/>
        <circle cx="7.5" cy="7.5" r="7" fill="none"/>
      </g>
    </g>
    <g transform="translate(-482 -141)">
      <g id="Ellipse_1-61" data-name="Ellipse 1" transform="translate(627 291)" fill="#185adb" stroke="#707070" stroke-width="1">
        <circle cx="7.5" cy="7.5" r="7.5" stroke="none"/>
        <circle cx="7.5" cy="7.5" r="7" fill="none"/>
      </g>
    </g>
    <g transform="translate(-453 -141)">
      <g id="Ellipse_1-62" data-name="Ellipse 1" transform="translate(627 291)" fill="#185adb" stroke="#707070" stroke-width="1">
        <circle cx="7.5" cy="7.5" r="7.5" stroke="none"/>
        <circle cx="7.5" cy="7.5" r="7" fill="none"/>
      </g>
    </g>
    <g transform="translate(-424 -141)">
      <g id="Ellipse_1-63" data-name="Ellipse 1" transform="translate(627 291)" fill="#185adb" stroke="#707070" stroke-width="1">
        <circle cx="7.5" cy="7.5" r="7.5" stroke="none"/>
        <circle cx="7.5" cy="7.5" r="7" fill="none"/>
      </g>
    </g>
    <g transform="translate(-395 -141)">
      <g id="Ellipse_1-64" data-name="Ellipse 1" transform="translate(627 291)" fill="#185adb" stroke="#707070" stroke-width="1">
        <circle cx="7.5" cy="7.5" r="7.5" stroke="none"/>
        <circle cx="7.5" cy="7.5" r="7" fill="none"/>
      </g>
    </g>
    <g transform="translate(-366 -141)">
      <g id="Ellipse_1-65" data-name="Ellipse 1" transform="translate(627 291)" fill="#185adb" stroke="#707070" stroke-width="1">
        <circle cx="7.5" cy="7.5" r="7.5" stroke="none"/>
        <circle cx="7.5" cy="7.5" r="7" fill="none"/>
      </g>
    </g>
    <g transform="translate(-337 -141)">
      <g id="Ellipse_1-66" data-name="Ellipse 1" transform="translate(627 291)" fill="#185adb" stroke="#707070" stroke-width="1">
        <circle cx="7.5" cy="7.5" r="7.5" stroke="none"/>
        <circle cx="7.5" cy="7.5" r="7" fill="none"/>
      </g>
    </g>
    <g transform="translate(-627 -111)">
      <g id="Ellipse_1-67" data-name="Ellipse 1" transform="translate(627 291)" fill="#185adb" stroke="#707070" stroke-width="1">
        <circle cx="7.5" cy="7.5" r="7.5" stroke="none"/>
        <circle cx="7.5" cy="7.5" r="7" fill="none"/>
      </g>
    </g>
    <g transform="translate(-598 -111)">
      <g id="Ellipse_1-68" data-name="Ellipse 1" transform="translate(627 291)" fill="#185adb" stroke="#707070" stroke-width="1">
        <circle cx="7.5" cy="7.5" r="7.5" stroke="none"/>
        <circle cx="7.5" cy="7.5" r="7" fill="none"/>
      </g>
    </g>
    <g transform="translate(-569 -111)">
      <g id="Ellipse_1-69" data-name="Ellipse 1" transform="translate(627 291)" fill="#185adb" stroke="#707070" stroke-width="1">
        <circle cx="7.5" cy="7.5" r="7.5" stroke="none"/>
        <circle cx="7.5" cy="7.5" r="7" fill="none"/>
      </g>
    </g>
    <g transform="translate(-540 -111)">
      <g id="Ellipse_1-70" data-name="Ellipse 1" transform="translate(627 291)" fill="#185adb" stroke="#707070" stroke-width="1">
        <circle cx="7.5" cy="7.5" r="7.5" stroke="none"/>
        <circle cx="7.5" cy="7.5" r="7" fill="none"/>
      </g>
    </g>
    <g transform="translate(-511 -111)">
      <g id="Ellipse_1-71" data-name="Ellipse 1" transform="translate(627 291)" fill="#185adb" stroke="#707070" stroke-width="1">
        <circle cx="7.5" cy="7.5" r="7.5" stroke="none"/>
        <circle cx="7.5" cy="7.5" r="7" fill="none"/>
      </g>
    </g>
    <g transform="translate(-482 -111)">
      <g id="Ellipse_1-72" data-name="Ellipse 1" transform="translate(627 291)" fill="#185adb" stroke="#707070" stroke-width="1">
        <circle cx="7.5" cy="7.5" r="7.5" stroke="none"/>
        <circle cx="7.5" cy="7.5" r="7" fill="none"/>
      </g>
    </g>
    <g transform="translate(-453 -111)">
      <g id="Ellipse_1-73" data-name="Ellipse 1" transform="translate(627 291)" fill="#185adb" stroke="#707070" stroke-width="1">
        <circle cx="7.5" cy="7.5" r="7.5" stroke="none"/>
        <circle cx="7.5" cy="7.5" r="7" fill="none"/>
      </g>
    </g>
    <g transform="translate(-424 -111)">
      <g id="Ellipse_1-74" data-name="Ellipse 1" transform="translate(627 291)" fill="#185adb" stroke="#707070" stroke-width="1">
        <circle cx="7.5" cy="7.5" r="7.5" stroke="none"/>
        <circle cx="7.5" cy="7.5" r="7" fill="none"/>
      </g>
    </g>
    <g transform="translate(-395 -111)">
      <g id="Ellipse_1-75" data-name="Ellipse 1" transform="translate(627 291)" fill="#185adb" stroke="#707070" stroke-width="1">
        <circle cx="7.5" cy="7.5" r="7.5" stroke="none"/>
        <circle cx="7.5" cy="7.5" r="7" fill="none"/>
      </g>
    </g>
    <g transform="translate(-366 -111)">
      <g id="Ellipse_1-76" data-name="Ellipse 1" transform="translate(627 291)" fill="#185adb" stroke="#707070" stroke-width="1">
        <circle cx="7.5" cy="7.5" r="7.5" stroke="none"/>
        <circle cx="7.5" cy="7.5" r="7" fill="none"/>
      </g>
    </g>
    <g transform="translate(-337 -111)">
      <g id="Ellipse_1-77" data-name="Ellipse 1" transform="translate(627 291)" fill="#185adb" stroke="#707070" stroke-width="1">
        <circle cx="7.5" cy="7.5" r="7.5" stroke="none"/>
        <circle cx="7.5" cy="7.5" r="7" fill="none"/>
      </g>
    </g>
    <g transform="translate(-627 -81)">
      <g id="Ellipse_1-78" data-name="Ellipse 1" transform="translate(627 291)" fill="#185adb" stroke="#707070" stroke-width="1">
        <circle cx="7.5" cy="7.5" r="7.5" stroke="none"/>
        <circle cx="7.5" cy="7.5" r="7" fill="none"/>
      </g>
    </g>
    <g transform="translate(-598 -81)">
      <g id="Ellipse_1-79" data-name="Ellipse 1" transform="translate(627 291)" fill="#185adb" stroke="#707070" stroke-width="1">
        <circle cx="7.5" cy="7.5" r="7.5" stroke="none"/>
        <circle cx="7.5" cy="7.5" r="7" fill="none"/>
      </g>
    </g>
    <g transform="translate(-569 -81)">
      <g id="Ellipse_1-80" data-name="Ellipse 1" transform="translate(627 291)" fill="#185adb" stroke="#707070" stroke-width="1">
        <circle cx="7.5" cy="7.5" r="7.5" stroke="none"/>
        <circle cx="7.5" cy="7.5" r="7" fill="none"/>
      </g>
    </g>
    <g transform="translate(-540 -81)">
      <g id="Ellipse_1-81" data-name="Ellipse 1" transform="translate(627 291)" fill="#185adb" stroke="#707070" stroke-width="1">
        <circle cx="7.5" cy="7.5" r="7.5" stroke="none"/>
        <circle cx="7.5" cy="7.5" r="7" fill="none"/>
      </g>
    </g>
    <g transform="translate(-511 -81)">
      <g id="Ellipse_1-82" data-name="Ellipse 1" transform="translate(627 291)" fill="#185adb" stroke="#707070" stroke-width="1">
        <circle cx="7.5" cy="7.5" r="7.5" stroke="none"/>
        <circle cx="7.5" cy="7.5" r="7" fill="none"/>
      </g>
    </g>
    <g transform="translate(-482 -81)">
      <g id="Ellipse_1-83" data-name="Ellipse 1" transform="translate(627 291)" fill="#185adb" stroke="#707070" stroke-width="1">
        <circle cx="7.5" cy="7.5" r="7.5" stroke="none"/>
        <circle cx="7.5" cy="7.5" r="7" fill="none"/>
      </g>
    </g>
    <g transform="translate(-453 -81)">
      <g id="Ellipse_1-84" data-name="Ellipse 1" transform="translate(627 291)" fill="#185adb" stroke="#707070" stroke-width="1">
        <circle cx="7.5" cy="7.5" r="7.5" stroke="none"/>
        <circle cx="7.5" cy="7.5" r="7" fill="none"/>
      </g>
    </g>
    <g transform="translate(-424 -81)">
      <g id="Ellipse_1-85" data-name="Ellipse 1" transform="translate(627 291)" fill="#185adb" stroke="#707070" stroke-width="1">
        <circle cx="7.5" cy="7.5" r="7.5" stroke="none"/>
        <circle cx="7.5" cy="7.5" r="7" fill="none"/>
      </g>
    </g>
    <g transform="translate(-395 -81)">
      <g id="Ellipse_1-86" data-name="Ellipse 1" transform="translate(627 291)" fill="#185adb" stroke="#707070" stroke-width="1">
        <circle cx="7.5" cy="7.5" r="7.5" stroke="none"/>
        <circle cx="7.5" cy="7.5" r="7" fill="none"/>
      </g>
    </g>
    <g transform="translate(-366 -81)">
      <g id="Ellipse_1-87" data-name="Ellipse 1" transform="translate(627 291)" fill="#185adb" stroke="#707070" stroke-width="1">
        <circle cx="7.5" cy="7.5" r="7.5" stroke="none"/>
        <circle cx="7.5" cy="7.5" r="7" fill="none"/>
      </g>
    </g>
    <g transform="translate(-337 -81)">
      <g id="Ellipse_1-88" data-name="Ellipse 1" transform="translate(627 291)" fill="#185adb" stroke="#707070" stroke-width="1">
        <circle cx="7.5" cy="7.5" r="7.5" stroke="none"/>
        <circle cx="7.5" cy="7.5" r="7" fill="none"/>
      </g>
    </g>
    <g transform="translate(-627 -51)">
      <g id="Ellipse_1-89" data-name="Ellipse 1" transform="translate(627 291)" fill="#185adb" stroke="#707070" stroke-width="1">
        <circle cx="7.5" cy="7.5" r="7.5" stroke="none"/>
        <circle cx="7.5" cy="7.5" r="7" fill="none"/>
      </g>
    </g>
    <g transform="translate(-598 -51)">
      <g id="Ellipse_1-90" data-name="Ellipse 1" transform="translate(627 291)" fill="#185adb" stroke="#707070" stroke-width="1">
        <circle cx="7.5" cy="7.5" r="7.5" stroke="none"/>
        <circle cx="7.5" cy="7.5" r="7" fill="none"/>
      </g>
    </g>
    <g transform="translate(-569 -51)">
      <g id="Ellipse_1-91" data-name="Ellipse 1" transform="translate(627 291)" fill="#185adb" stroke="#707070" stroke-width="1">
        <circle cx="7.5" cy="7.5" r="7.5" stroke="none"/>
        <circle cx="7.5" cy="7.5" r="7" fill="none"/>
      </g>
    </g>
    <g transform="translate(-540 -51)">
      <g id="Ellipse_1-92" data-name="Ellipse 1" transform="translate(627 291)" fill="#185adb" stroke="#707070" stroke-width="1">
        <circle cx="7.5" cy="7.5" r="7.5" stroke="none"/>
        <circle cx="7.5" cy="7.5" r="7" fill="none"/>
      </g>
    </g>
    <g transform="translate(-511 -51)">
      <g id="Ellipse_1-93" data-name="Ellipse 1" transform="translate(627 291)" fill="#185adb" stroke="#707070" stroke-width="1">
        <circle cx="7.5" cy="7.5" r="7.5" stroke="none"/>
        <circle cx="7.5" cy="7.5" r="7" fill="none"/>
      </g>
    </g>
    <g transform="translate(-482 -51)">
      <g id="Ellipse_1-94" data-name="Ellipse 1" transform="translate(627 291)" fill="#185adb" stroke="#707070" stroke-width="1">
        <circle cx="7.5" cy="7.5" r="7.5" stroke="none"/>
        <circle cx="7.5" cy="7.5" r="7" fill="none"/>
      </g>
    </g>
    <g transform="translate(-453 -51)">
      <g id="Ellipse_1-95" data-name="Ellipse 1" transform="translate(627 291)" fill="#185adb" stroke="#707070" stroke-width="1">
        <circle cx="7.5" cy="7.5" r="7.5" stroke="none"/>
        <circle cx="7.5" cy="7.5" r="7" fill="none"/>
      </g>
    </g>
    <g transform="translate(-424 -51)">
      <g id="Ellipse_1-96" data-name="Ellipse 1" transform="translate(627 291)" fill="#185adb" stroke="#707070" stroke-width="1">
        <circle cx="7.5" cy="7.5" r="7.5" stroke="none"/>
        <circle cx="7.5" cy="7.5" r="7" fill="none"/>
      </g>
    </g>
    <g transform="translate(-395 -51)">
      <g id="Ellipse_1-97" data-name="Ellipse 1" transform="translate(627 291)" fill="#185adb" stroke="#707070" stroke-width="1">
        <circle cx="7.5" cy="7.5" r="7.5" stroke="none"/>
        <circle cx="7.5" cy="7.5" r="7" fill="none"/>
      </g>
    </g>
    <g transform="translate(-366 -51)">
      <g id="Ellipse_1-98" data-name="Ellipse 1" transform="translate(627 291)" fill="#185adb" stroke="#707070" stroke-width="1">
        <circle cx="7.5" cy="7.5" r="7.5" stroke="none"/>
        <circle cx="7.5" cy="7.5" r="7" fill="none"/>
      </g>
    </g>
    <g transform="translate(-337 -51)">
      <g id="Ellipse_1-99" data-name="Ellipse 1" transform="translate(627 291)" fill="#185adb" stroke="#707070" stroke-width="1">
        <circle cx="7.5" cy="7.5" r="7.5" stroke="none"/>
        <circle cx="7.5" cy="7.5" r="7" fill="none"/>
      </g>
    </g>
    <g transform="translate(-627 -21)">
      <g id="Ellipse_1-100" data-name="Ellipse 1" transform="translate(627 291)" fill="#185adb" stroke="#707070" stroke-width="1">
        <circle cx="7.5" cy="7.5" r="7.5" stroke="none"/>
        <circle cx="7.5" cy="7.5" r="7" fill="none"/>
      </g>
    </g>
    <g transform="translate(-598 -21)">
      <g id="Ellipse_1-101" data-name="Ellipse 1" transform="translate(627 291)" fill="#185adb" stroke="#707070" stroke-width="1">
        <circle cx="7.5" cy="7.5" r="7.5" stroke="none"/>
        <circle cx="7.5" cy="7.5" r="7" fill="none"/>
      </g>
    </g>
    <g transform="translate(-569 -21)">
      <g id="Ellipse_1-102" data-name="Ellipse 1" transform="translate(627 291)" fill="#185adb" stroke="#707070" stroke-width="1">
        <circle cx="7.5" cy="7.5" r="7.5" stroke="none"/>
        <circle cx="7.5" cy="7.5" r="7" fill="none"/>
      </g>
    </g>
    <g transform="translate(-540 -21)">
      <g id="Ellipse_1-103" data-name="Ellipse 1" transform="translate(627 291)" fill="#185adb" stroke="#707070" stroke-width="1">
        <circle cx="7.5" cy="7.5" r="7.5" stroke="none"/>
        <circle cx="7.5" cy="7.5" r="7" fill="none"/>
      </g>
    </g>
    <g transform="translate(-511 -21)">
      <g id="Ellipse_1-104" data-name="Ellipse 1" transform="translate(627 291)" fill="#185adb" stroke="#707070" stroke-width="1">
        <circle cx="7.5" cy="7.5" r="7.5" stroke="none"/>
        <circle cx="7.5" cy="7.5" r="7" fill="none"/>
      </g>
    </g>
    <g transform="translate(-482 -21)">
      <g id="Ellipse_1-105" data-name="Ellipse 1" transform="translate(627 291)" fill="#185adb" stroke="#707070" stroke-width="1">
        <circle cx="7.5" cy="7.5" r="7.5" stroke="none"/>
        <circle cx="7.5" cy="7.5" r="7" fill="none"/>
      </g>
    </g>
    <g transform="translate(-453 -21)">
      <g id="Ellipse_1-106" data-name="Ellipse 1" transform="translate(627 291)" fill="#185adb" stroke="#707070" stroke-width="1">
        <circle cx="7.5" cy="7.5" r="7.5" stroke="none"/>
        <circle cx="7.5" cy="7.5" r="7" fill="none"/>
      </g>
    </g>
    <g transform="translate(-424 -21)">
      <g id="Ellipse_1-107" data-name="Ellipse 1" transform="translate(627 291)" fill="#185adb" stroke="#707070" stroke-width="1">
        <circle cx="7.5" cy="7.5" r="7.5" stroke="none"/>
        <circle cx="7.5" cy="7.5" r="7" fill="none"/>
      </g>
    </g>
    <g transform="translate(-395 -21)">
      <g id="Ellipse_1-108" data-name="Ellipse 1" transform="translate(627 291)" fill="#185adb" stroke="#707070" stroke-width="1">
        <circle cx="7.5" cy="7.5" r="7.5" stroke="none"/>
        <circle cx="7.5" cy="7.5" r="7" fill="none"/>
      </g>
    </g>
    <g transform="translate(-366 -21)">
      <g id="Ellipse_1-109" data-name="Ellipse 1" transform="translate(627 291)" fill="#185adb" stroke="#707070" stroke-width="1">
        <circle cx="7.5" cy="7.5" r="7.5" stroke="none"/>
        <circle cx="7.5" cy="7.5" r="7" fill="none"/>
      </g>
    </g>
    <g transform="translate(-337 -21)">
      <g id="Ellipse_1-110" data-name="Ellipse 1" transform="translate(627 291)" fill="#185adb" stroke="#707070" stroke-width="1">
        <circle cx="7.5" cy="7.5" r="7.5" stroke="none"/>
        <circle cx="7.5" cy="7.5" r="7" fill="none"/>
      </g>
    </g>
  </g>
</svg>
